<?xml version="1.0" encoding="UTF-8" standalone="no"?>
<svg
   xmlns:dc="http://purl.org/dc/elements/1.1/"
   xmlns:cc="http://creativecommons.org/ns#"
   xmlns:rdf="http://www.w3.org/1999/02/22-rdf-syntax-ns#"
   xmlns:svg="http://www.w3.org/2000/svg"
   xmlns="http://www.w3.org/2000/svg"
   xmlns:sodipodi="http://sodipodi.sourceforge.net/DTD/sodipodi-0.dtd"
   xmlns:inkscape="http://www.inkscape.org/namespaces/inkscape"
   version="1.1"
   x="0px"
   y="0px"
   viewBox="0 0 15.624042 15.624043"
   xml:space="preserve"
   id="svg12"
   sodipodi:docname="birdbox.svg"
   width="15.624042"
   height="15.624043"
   inkscape:version="0.92.2 (5c3e80d, 2017-08-06)"><metadata
     id="metadata18"><rdf:RDF><cc:Work
         rdf:about=""><dc:format>image/svg+xml</dc:format><dc:type
           rdf:resource="http://purl.org/dc/dcmitype/StillImage" /><dc:title></dc:title></cc:Work></rdf:RDF></metadata><defs
     id="defs16" /><sodipodi:namedview
     pagecolor="#ffffff"
     bordercolor="#666666"
     borderopacity="1"
     objecttolerance="10"
     gridtolerance="10"
     guidetolerance="10"
     inkscape:pageopacity="0"
     inkscape:pageshadow="2"
     inkscape:window-width="1920"
     inkscape:window-height="1001"
     id="namedview14"
     showgrid="false"
     fit-margin-top="0"
     fit-margin-left="0"
     fit-margin-right="0"
     fit-margin-bottom="0"
     inkscape:zoom="41.870823"
     inkscape:cx="7.7403724"
     inkscape:cy="8.743457"
     inkscape:window-x="-9"
     inkscape:window-y="-9"
     inkscape:window-maximized="1"
     inkscape:current-layer="g6" /><g
     id="g6"
     transform="translate(-0.2596276,-1.1194149)"><path
       d="m 2.4916337,8.9314362 0.9363265,4.6827478 c 0.1049043,0.52229 0.5624656,0.897267 1.094799,0.897267 h 2.4328867 v 1.116003 c 0,0.613802 0.5022013,1.116003 1.116003,1.116003 0.6138017,0 1.116003,-0.502201 1.116003,-1.116003 v -1.116003 h 2.4328871 c 0.532333,0 0.989895,-0.374977 1.094799,-0.897267 L 13.651665,8.9314362 8.0716489,4.0589669 Z m 6.6960182,1.1160028 c 0,0.616034 -0.4999693,1.116003 -1.116003,1.116003 -0.6160337,0 -1.116003,-0.499969 -1.116003,-1.116003 0,-0.6160334 0.4999693,-1.1160028 1.116003,-1.1160028 0.6160337,0 1.116003,0.4999694 1.116003,1.1160028 z"
       id="path2"
       style="fill:#787878;fill-opacity:1;stroke-width:1.11600304"
       inkscape:connector-curvature="0" /><polygon
       points="14.291,7.709 15,7 8,1 1,7 1.709,7.709 8,2.317 "
       id="polygon4"
       style="fill:#787878;fill-opacity:1"
       transform="matrix(1.116003,0,0,1.116003,-0.8563754,0.00341189)" /></g></svg>