<?xml version="1.0" encoding="UTF-8" standalone="no"?>
<svg
   xmlns:dc="http://purl.org/dc/elements/1.1/"
   xmlns:cc="http://creativecommons.org/ns#"
   xmlns:rdf="http://www.w3.org/1999/02/22-rdf-syntax-ns#"
   xmlns:svg="http://www.w3.org/2000/svg"
   xmlns="http://www.w3.org/2000/svg"
   xmlns:sodipodi="http://sodipodi.sourceforge.net/DTD/sodipodi-0.dtd"
   xmlns:inkscape="http://www.inkscape.org/namespaces/inkscape"
   version="1.1"
   x="0px"
   y="0px"
   viewBox="0 0 110.003 110.47"
   enable-background="new 0 0 100 100"
   xml:space="preserve"
   id="svg160"
   sodipodi:docname="birdwatch.svg"
   width="110.003"
   height="110.47"
   inkscape:version="0.92.2 (5c3e80d, 2017-08-06)"><metadata
     id="metadata166"><rdf:RDF><cc:Work
         rdf:about=""><dc:format>image/svg+xml</dc:format><dc:type
           rdf:resource="http://purl.org/dc/dcmitype/StillImage" /><dc:title></dc:title></cc:Work></rdf:RDF></metadata><defs
     id="defs164" /><sodipodi:namedview
     pagecolor="#ffffff"
     bordercolor="#666666"
     borderopacity="1"
     objecttolerance="10"
     gridtolerance="10"
     guidetolerance="10"
     inkscape:pageopacity="0"
     inkscape:pageshadow="2"
     inkscape:window-width="1920"
     inkscape:window-height="1001"
     id="namedview162"
     showgrid="false"
     fit-margin-top="25"
     fit-margin-left="5"
     fit-margin-right="5"
     fit-margin-bottom="25"
     inkscape:zoom="5.9638222"
     inkscape:cx="28.857688"
     inkscape:cy="48.187199"
     inkscape:window-x="-9"
     inkscape:window-y="-9"
     inkscape:window-maximized="1"
     inkscape:current-layer="svg160" /><g
     id="g154"
     style="fill:#787878;fill-opacity:1"
     transform="translate(3.9769338,2.8733052)"><g
       id="g152"
       style="fill:#787878;fill-opacity:1"><path
         d="m 72.83,22.761 c -9.56,0 -17.948,4.937 -22.804,12.39 -4.854,-7.453 -13.244,-12.39 -22.801,-12.39 -15.026,0 -27.208,12.182 -27.208,27.211 0,15.023 12.182,27.259 27.208,27.259 4.68,0 9.072,-1.23 12.913,-3.23 -6.388,0 -13.02,0 -13.053,0 0,0 27.217,-38.928 27.263,-38.997 0.021,-0.025 0.041,-0.071 0.067,-0.097 0.682,-0.943 1.549,-1.755 2.545,-2.379 1.011,-0.641 2.154,-1.096 3.381,-1.306 0.503,-0.088 1.021,-0.139 1.55,-0.139 0.523,0 1.031,0.049 1.529,0.134 4.161,0.692 7.373,4.141 7.702,8.409 L 78.542,43.3 71,46.957 v 4.908 c 0,0.021 0,0.046 0,0.066 0,9.23 -5.66,17.112 -13.731,20.365 4.392,3.062 9.756,4.883 15.523,4.883 15.029,0 27.228,-12.185 27.228,-27.208 0,-15.029 -12.161,-27.21 -27.19,-27.21 z"
         id="path148"
         style="fill:#787878;fill-opacity:1"
         inkscape:connector-curvature="0" /><circle
         cx="62.963001"
         cy="39.658001"
         r="1.365"
         id="circle150"
         style="fill:#787878;fill-opacity:1" /></g></g></svg>