<?xml version="1.0" encoding="UTF-8" standalone="no"?>
<svg
   xmlns:dc="http://purl.org/dc/elements/1.1/"
   xmlns:cc="http://creativecommons.org/ns#"
   xmlns:rdf="http://www.w3.org/1999/02/22-rdf-syntax-ns#"
   xmlns:svg="http://www.w3.org/2000/svg"
   xmlns="http://www.w3.org/2000/svg"
   xmlns:xlink="http://www.w3.org/1999/xlink"
   xmlns:sodipodi="http://sodipodi.sourceforge.net/DTD/sodipodi-0.dtd"
   xmlns:inkscape="http://www.inkscape.org/namespaces/inkscape"
   version="1.1"
   x="0px"
   y="0px"
   viewBox="0 0 64 63.5"
   enable-background="new 0 0 66 66"
   xml:space="preserve"
   id="svg24"
   sodipodi:docname="seminar.svg"
   width="64"
   height="63.5"
   inkscape:version="0.92.2 (5c3e80d, 2017-08-06)"><metadata
     id="metadata30"><rdf:RDF><cc:Work
         rdf:about=""><dc:format>image/svg+xml</dc:format><dc:type
           rdf:resource="http://purl.org/dc/dcmitype/StillImage" /><dc:title /></cc:Work></rdf:RDF></metadata><defs
     id="defs28"><clipPath
       clipPathUnits="userSpaceOnUse"
       id="clipPath865"><use
         x="0"
         y="0"
         xlink:href="#g861"
         id="use867"
         width="100%"
         height="100%" /></clipPath></defs><sodipodi:namedview
     pagecolor="#ffffff"
     bordercolor="#666666"
     borderopacity="1"
     objecttolerance="10"
     gridtolerance="10"
     guidetolerance="10"
     inkscape:pageopacity="0"
     inkscape:pageshadow="2"
     inkscape:window-width="1920"
     inkscape:window-height="1001"
     id="namedview26"
     showgrid="false"
     fit-margin-top="0"
     fit-margin-left="0"
     fit-margin-right="0"
     fit-margin-bottom="0"
     inkscape:zoom="13.055118"
     inkscape:cx="15.110072"
     inkscape:cy="31.75"
     inkscape:window-x="-9"
     inkscape:window-y="-9"
     inkscape:window-maximized="1"
     inkscape:current-layer="g881" /><g
     id="g881"
     transform="translate(-0.45587934,-4.2833507)"><g
       transform="translate(-0.46752236,3.159949)"
       id="g18"
       style="fill:#787878;fill-opacity:1"><g
         id="g4"
         style="fill:#787878;fill-opacity:1"><path
           inkscape:connector-curvature="0"
           id="path2"
           d="m 13.6,24.5 c 3.5,0 6.2,-3.9 6.2,-7.2 0,-3.4 -2.8,-6.2 -6.2,-6.2 -0.5,0 -0.9,0.1 -1.3,0.1 -2.9,0.6 -4.9,3.2 -4.9,6.1 0,3.4 2.7,7.2 6.2,7.2 z"
           style="fill:#787878;fill-opacity:1" /></g><g
         id="g8"
         style="fill:#787878;fill-opacity:1"><path
           inkscape:connector-curvature="0"
           id="path6"
           d="m 35.2,25 c 0,0 0,0 0,0 1.6,-1.2 1.6,-3.1 0.7,-4.3 -0.9,-1.2 -2.6,-1.9 -4.2,-0.8 l -6.9,4.7 c -0.9,0.6 -2,1 -3.1,1 h -4.1 c -0.4,0 -0.7,0.2 -0.9,0.6 -0.7,1.5 -1.6,2.9 -2.6,4.1 H 13.2 C 12.1,29 11.3,27.7 10.6,26.2 10.4,25.8 10.1,25.6 9.7,25.6 H 6.1 C 3.3,25.6 1,27.9 1,30.7 v 12.8 c 0,1.5 1.2,2.7 2.7,2.7 h 2.4 v 17.5 c 0,0.5 0.4,1 1,1 h 4.2 c 0.5,0 1,-0.4 1,-0.9 L 13.2,48.9 H 14 l 0.9,14.9 c 0,0.5 0.5,0.9 1,0.9 h 4.3 c 0.3,0 0.5,-0.1 0.7,-0.3 0.2,-0.2 0.3,-0.4 0.3,-0.7 L 21.1,35.3 c 0,-0.6 0.2,-1.1 0.6,-1.5 3,-2.4 11.2,-7.1 13.5,-8.8 z"
           style="fill:#787878;fill-opacity:1" /></g><g
         transform="translate(27.568783,-2.9019771)"
         id="g12"
         style="fill:#787878;fill-opacity:1" /><g
         id="g16"
         style="fill:#787878;fill-opacity:1"><path
           style="fill:#787878;fill-opacity:1"
           d="m 11.5,0 c -0.6,0 -1,0.4 -1,1 v 7.1992188 c 0.1,0 0.300391,-0.099609 0.400391,-0.099609 0.5,-0.1 1.099218,-0.1992188 1.699218,-0.1992188 4.5,0 8.201172,3.699218 8.201172,8.199218 0,2.2 -0.90039,4.600782 -2.40039,6.300782 h 2.298828 c 0.7,0 1.4,-0.19961 2,-0.59961 l 6.90039,-4.701172 c 2.4,-1.6 5.4,-0.999218 7,1.300782 1.4,2 1.400782,5.299609 -1.199218,7.099609 -0.3,0.2 -11.100782,6.900781 -13.300782,8.800781 V 37.5 h 11.5 V 45 l -8.798828,8.800781 c -0.4,0.4 -0.4,0.998438 0,1.398438 0.4,0.4 0.998438,0.4 1.398438,0 l 7.40039,-7.398438 v 6.5 c 0,0.6 0.4,1 1,1 0.6,0 1,-0.4 1,-1 v -6.5 l 7.300782,7.298828 c 0.4,0.4 1.00039,0.4 1.40039,0 0.4,-0.4 0.4,-1.00039 0,-1.40039 L 35.599609,45 V 37.5 H 63 c 0.6,0 1,-0.5 1,-1 V 1 C 64,0.5 63.6,0 63,0 Z m 44.662109,2.9414062 c 0.200045,0 0.393361,0.021149 0.583985,0.052734 1.589271,0.2648786 2.816171,1.5817814 2.941406,3.2128906 l 2.867188,1.4042969 -2.853516,1.3964844 v 1.8769539 c -2.77e-4,0.0086 0,0.01708 0,0.02539 -0.01441,4.638147 -3.778451,8.393133 -8.419922,8.392578 -2.452621,0 -8.397466,0 -8.417969,0 0,0 10.397452,-14.8550919 10.416016,-14.8808594 0.0067,-0.010252 0.01568,-0.019599 0.02344,-0.029297 0.26294,-0.3599135 0.594456,-0.6637867 0.972657,-0.9023437 0.387343,-0.2443755 0.824444,-0.4157436 1.292968,-0.4960938 0.192841,-0.033248 0.391767,-0.052734 0.59375,-0.052734 z m 0.408203,2.7558594 c -0.288706,0 -0.521484,0.235008 -0.521484,0.5234375 0,0.2884296 0.232778,0.5214844 0.521484,0.5214844 0.28843,0 0.523161,-0.2330548 0.523438,-0.5214844 0,-0.2884295 -0.235008,-0.5234375 -0.523438,-0.5234375 z"
           transform="translate(1,1.2)"
           id="path14"
           inkscape:connector-curvature="0" /></g></g><g
       transform="translate(-0.25393913,0.97579975)"
       clip-path="url(#clipPath865)"
       id="g863"><g
         id="g861"
         inkscape:label="Clip"><g
           id="g857"
           transform="matrix(0.27706969,0,0,0.27706969,42.093743,5.3552642)"
           style="fill:#ffffff" /></g></g></g></svg>